<svg width="24" height="18" viewBox="0 0 24 18" fill="none" xmlns="http://www.w3.org/2000/svg">
<path d="M22.5396 3.60811C22.4208 3.1378 22.1789 2.70689 21.8382 2.3589C21.4976 2.0109 21.0703 1.75815 20.5996 1.62617C18.8796 1.20996 11.9996 1.20996 11.9996 1.20996C11.9996 1.20996 5.1196 1.20996 3.3996 1.66581C2.92884 1.79779 2.50157 2.05054 2.16094 2.39854C1.82031 2.74653 1.57838 3.17744 1.4596 3.64775C1.14481 5.37754 0.990831 7.13231 0.999595 8.88998C0.988374 10.6609 1.14236 12.429 1.4596 14.1719C1.59055 14.6276 1.8379 15.0421 2.17774 15.3754C2.51758 15.7087 2.93842 15.9495 3.3996 16.0745C5.1196 16.5304 11.9996 16.5304 11.9996 16.5304C11.9996 16.5304 18.8796 16.5304 20.5996 16.0745C21.0703 15.9425 21.4976 15.6898 21.8382 15.3418C22.1789 14.9938 22.4208 14.5629 22.5396 14.0926C22.852 12.3758 23.0059 10.6344 22.9996 8.88998C23.0108 7.11907 22.8568 5.35093 22.5396 3.60811V3.60811Z" stroke="#6E7191" stroke-width="2" stroke-linecap="round" stroke-linejoin="round"/>
<path d="M9.75 12.1304L15.5 8.88989L9.75 5.64941V12.1304Z" stroke="#6E7191" stroke-width="2" stroke-linecap="round" stroke-linejoin="round"/>
</svg>
